<?xml version="1.0" encoding="UTF-8"?>
<svg width="160px" height="39px" viewBox="0 0 160 39" version="1.1" xmlns="http://www.w3.org/2000/svg" xmlns:xlink="http://www.w3.org/1999/xlink">
    <!-- Generator: Sketch 63.1 (92452) - https://sketch.com -->
    <title>logo-dark</title>
    <desc>Created with Sketch.</desc>
    <g id="logo-dark" stroke="none" stroke-width="1" fill="none" fill-rule="evenodd">
        <path d="M25.2081633,30.8169643 C25.0630385,29.2790179 24.9759637,27.7918527 24.9469388,26.3554687 C24.9179138,24.9190848 24.9034014,23.8236607 24.9034014,23.0691964 C24.9034014,21.4441964 24.9469388,20.109375 25.0340136,19.0647321 L25.0340136,19.0647321 L24.0326531,19.0647321 C23.7133787,20.921875 23.0748299,22.6702009 22.1170068,24.3097098 C21.1591837,25.9492187 20.0852608,27.2767857 18.8952381,28.2924107 C17.7052154,29.3080357 16.6022676,29.8158482 15.5863946,29.8158482 L15.5863946,29.8158482 L14.1496599,29.8158482 C13.5401361,29.8158482 13.075737,29.750558 12.7564626,29.6199777 C12.4371882,29.4893973 12.2195011,29.2282366 12.1034014,28.8364955 C11.9873016,28.4447545 11.9292517,27.8571429 11.9292517,27.0736607 L11.9292517,27.0736607 L11.9292517,4.61383929 C11.9292517,3.54017857 12.0163265,2.74944196 12.1904762,2.24162946 C12.3646259,1.73381696 12.7056689,1.38560268 13.2136054,1.19698661 C13.721542,1.00837054 14.4689342,0.899553571 15.4557823,0.870535714 L15.4557823,0.870535714 L15.4557823,0 C14.5560091,0.0290178571 13.4095238,0.0580357143 12.0163265,0.0870535714 C10.6231293,0.116071429 9.20090703,0.130580357 7.74965986,0.130580357 C6.18231293,0.130580357 4.70929705,0.116071429 3.33061224,0.0870535714 C1.95192744,0.0580357143 0.841723356,0.0290178571 0,0 L0,0 L0,0.870535714 C0.870748299,0.899553571 1.53106576,1.00837054 1.98095238,1.19698661 C2.430839,1.38560268 2.72834467,1.73381696 2.87346939,2.24162946 C3.0185941,2.74944196 3.09115646,3.54017857 3.09115646,4.61383929 L3.09115646,4.61383929 L3.09115646,26.203125 C3.09115646,27.2477679 3.0185941,28.03125 2.87346939,28.5535714 C2.72834467,29.0758929 2.43809524,29.4241071 2.00272109,29.5982143 C1.56734694,29.7723214 0.899773243,29.8883929 0,29.9464286 L0,29.9464286 L0,30.8169643 C1.68344671,30.7589286 3.5047619,30.7226563 5.46394558,30.7081473 C7.42312925,30.6936384 9.28072562,30.6863839 11.0367347,30.6863839 L11.0367347,30.6863839 L15.2380952,30.6863839 C16.6893424,30.6863839 18.3437642,30.6936384 20.2013605,30.7081473 C22.0589569,30.7226563 23.7278912,30.7589286 25.2081633,30.8169643 Z M38.5741497,31.4263393 C40.8380952,31.4263393 42.8045351,31.0491071 44.4734694,30.2946429 C46.1424036,29.5401786 47.4412698,28.2924107 48.370068,26.5513393 C49.2988662,24.8102679 49.7632653,22.4743304 49.7632653,19.5435268 C49.7632653,16.6127232 49.2988662,14.2767857 48.370068,12.5357143 C47.4412698,10.7946429 46.1424036,9.53962054 44.4734694,8.77064732 C42.8045351,8.00167411 40.8380952,7.6171875 38.5741497,7.6171875 C36.339229,7.6171875 34.3800454,8.00167411 32.6965986,8.77064732 C31.0131519,9.53962054 29.7070295,10.7946429 28.7782313,12.5357143 C27.8494331,14.2767857 27.385034,16.6127232 27.385034,19.5435268 C27.385034,22.4743304 27.8494331,24.8102679 28.7782313,26.5513393 C29.7070295,28.2924107 31.0131519,29.5401786 32.6965986,30.2946429 C34.3800454,31.0491071 36.339229,31.4263393 38.5741497,31.4263393 Z M38.5741497,30.5558036 C37.7034014,30.5558036 36.9777778,29.6925223 36.3972789,27.9659598 C35.81678,26.2393973 35.5265306,23.4319196 35.5265306,19.5435268 C35.5265306,15.6551339 35.81678,12.8404018 36.3972789,11.0993304 C36.9777778,9.35825893 37.7034014,8.48772321 38.5741497,8.48772321 C39.444898,8.48772321 40.1705215,9.35825893 40.7510204,11.0993304 C41.3315193,12.8404018 41.6217687,15.6551339 41.6217687,19.5435268 C41.6217687,23.4319196 41.3315193,26.2393973 40.7510204,27.9659598 C40.1705215,29.6925223 39.444898,30.5558036 38.5741497,30.5558036 Z M64.8272109,30.8169643 L70.7047619,13.3627232 C71.1981859,11.9408482 71.6988662,10.9324777 72.2068027,10.3376116 C72.7147392,9.74274554 73.2444444,9.34375 73.7959184,9.140625 L73.7959184,9.140625 L73.7959184,8.2265625 C73.476644,8.28459821 72.9687075,8.328125 72.2721088,8.35714286 C71.5755102,8.38616071 70.9659864,8.40066964 70.4435374,8.40066964 C69.9210884,8.40066964 69.1809524,8.38616071 68.2231293,8.35714286 C67.2653061,8.328125 66.4816327,8.28459821 65.8721088,8.2265625 L65.8721088,8.2265625 L65.8721088,9.140625 C67.1492063,9.22767857 68.1070295,9.98939732 68.7455782,11.4257812 C69.384127,12.8621652 69.2099773,15.0457589 68.2231293,17.9765625 L68.2231293,17.9765625 L66.2095238,23.9801499 L61.4748299,10.7946429 C61.3732426,10.2868304 61.388322,9.91787284 61.520068,9.6877703 L61.5836735,9.59765625 C61.7723356,9.38002232 62.0770975,9.24944196 62.4979592,9.20591518 C62.9188209,9.16238839 63.3904762,9.140625 63.9129252,9.140625 L63.9129252,9.140625 L63.9129252,8.2265625 C63.0421769,8.28459821 62.1061224,8.34263393 61.1047619,8.40066964 C60.1034014,8.45870536 59.1528345,8.48772321 58.2530612,8.48772321 C56.7437642,8.48772321 55.3650794,8.46595982 54.1170068,8.42243304 C52.8689342,8.37890625 51.6643991,8.31361607 50.5034014,8.2265625 L50.5034014,8.2265625 L50.5034014,9.140625 C50.8226757,9.140625 51.2145125,9.27120536 51.6789116,9.53236607 C52.1433107,9.79352679 52.5931973,10.4754464 53.0285714,11.578125 L53.0285714,11.578125 L60.6040816,30.8169643 C61.3006803,30.7589286 62.0045351,30.7299107 62.7156463,30.7299107 C63.4267574,30.7299107 64.1306122,30.7589286 64.8272109,30.8169643 L64.8272109,30.8169643 Z M85.1591837,31.4263393 C86.9006803,31.4263393 88.3809524,31.0563616 89.6,30.3164062 C90.8190476,29.5764509 91.8131519,28.6333705 92.5823129,27.4871652 C93.3514739,26.3409598 93.9102041,25.1875 94.2585034,24.0267857 L94.2585034,24.0267857 L93.5183673,23.765625 C92.5605442,25.1004464 91.5882086,25.9202009 90.6013605,26.2248884 C89.6145125,26.5295759 88.830839,26.6819196 88.2503401,26.6819196 C87.4666667,26.6819196 86.6902494,26.4642857 85.9210884,26.0290179 C85.1519274,25.59375 84.5133787,24.8102679 84.0054422,23.6785714 C83.4975057,22.546875 83.2435374,20.9654018 83.2435374,18.9341518 L83.2435374,18.9341518 L83.2435374,18.0200893 C83.2435374,17.7299107 83.2580499,17.4397321 83.2870748,17.1495536 L83.2699708,17.3671875 L94.5197279,17.3671875 C94.5197279,14.0408247 93.8619632,11.6194815 92.5464338,10.1031578 L92.3210884,9.85881696 C90.8553288,8.36439732 88.8453515,7.6171875 86.2911565,7.6171875 C84.2013605,7.6171875 82.307483,8.03069196 80.6095238,8.85770089 C78.9115646,9.68470982 77.569161,10.9760045 76.5823129,12.7315848 C75.5954649,14.4871652 75.1020408,16.7578125 75.1020408,19.5435268 C75.1020408,22.4743304 75.5519274,24.8102679 76.4517007,26.5513393 C77.3514739,28.2924107 78.5632653,29.5401786 80.0870748,30.2946429 C81.6108844,31.0491071 83.3015873,31.4263393 85.1591837,31.4263393 Z M83.1421769,16.2512185 C83.2986395,13.5520477 83.6081633,11.6243722 84.0707483,10.468192 C84.5641723,9.23493304 85.2027211,8.61830357 85.9863946,8.61830357 C86.5378685,8.61830357 86.9732426,8.98102679 87.292517,9.70647321 C87.6117914,10.4319196 87.8439909,11.3967634 87.9891156,12.6010045 C88.1342404,13.8052455 88.1922902,15.1183036 88.1632653,16.5401786 L88.1632653,16.5401786 L83.1269193,16.5401786 L83.1421769,16.2512185 Z M110.585034,30.8169643 L110.585034,29.9029018 C109.249887,29.9029018 108.292063,29.65625 107.711565,29.1629464 C107.131066,28.6696429 106.840816,27.7265625 106.840816,26.3337054 L106.840816,26.3337054 L106.840816,13.2756696 C106.840816,12.6953125 106.956916,12.1512277 107.189116,11.6434152 C107.421315,11.1356027 107.733333,10.6858259 108.12517,10.2940848 C108.517007,9.90234375 108.945125,9.60491071 109.409524,9.40178571 C109.815873,9.19866071 110.280272,9.09709821 110.802721,9.09709821 C110.164172,9.53236607 109.634467,10.0691964 109.213605,10.7075893 C108.792744,11.3459821 108.582313,12.1584821 108.582313,13.1450893 C108.582313,14.0736607 108.908844,14.828125 109.561905,15.4084821 C110.214966,15.9888393 111.180045,16.2790179 112.457143,16.2790179 C113.647166,16.2790179 114.612245,15.8945312 115.352381,15.125558 C116.092517,14.3565848 116.462585,13.3191964 116.462585,12.0133929 C116.462585,11.3459821 116.346485,10.671317 116.114286,9.98939732 C115.882086,9.30747768 115.475737,8.74162946 114.895238,8.29185268 C114.314739,7.84207589 113.502041,7.6171875 112.457143,7.6171875 C111.61542,7.6171875 110.839002,7.73325893 110.127891,7.96540179 C109.41678,8.19754464 108.785488,8.55301339 108.234014,9.03180804 C107.68254,9.51060268 107.218141,10.1272321 106.840816,10.8816964 L106.840816,10.8816964 L106.840816,7.74776786 C105.766893,7.95089286 104.598639,8.10323661 103.336054,8.20479911 C102.073469,8.30636161 100.716553,8.35714286 99.2653061,8.35714286 C98.3945578,8.35714286 97.4947846,8.31361607 96.5659864,8.2265625 L96.5659864,8.2265625 L96.5659864,9.140625 C97.4947846,9.140625 98.1333333,9.45256696 98.4816327,10.0764509 C98.829932,10.7003348 99.0040816,11.6651786 99.0040816,12.9709821 L99.0040816,12.9709821 L99.0040816,26.7689732 C99.0040816,27.9877232 98.8226757,28.8147321 98.4598639,29.25 C98.0970522,29.6852679 97.4657596,29.9029018 96.5659864,29.9029018 L96.5659864,29.9029018 L96.5659864,30.8169643 C97.2335601,30.7879464 98.2349206,30.7516741 99.570068,30.7081473 C100.905215,30.6646205 102.22585,30.6428571 103.531973,30.6428571 C104.92517,30.6428571 106.282086,30.6646205 107.602721,30.7081473 C108.923356,30.7516741 109.91746,30.7879464 110.585034,30.8169643 L110.585034,30.8169643 Z M127.042177,31.4263393 C128.667574,31.4263393 130.14059,31.1434152 131.461224,30.577567 C132.781859,30.0117187 133.84127,29.2209821 134.639456,28.2053571 C135.437642,27.1897321 135.836735,26.0290179 135.836735,24.7232143 C135.836735,23.0401786 135.386848,21.6618304 134.487075,20.5881696 C133.587302,19.5145089 132.469841,18.4408482 131.134694,17.3671875 C130.321995,16.6707589 129.509297,16.0106027 128.696599,15.3867187 C127.8839,14.7628348 127.216327,14.109933 126.693878,13.4280134 C126.171429,12.7460937 125.910204,11.9698661 125.910204,11.0993304 C125.910204,10.3448661 126.156916,9.75 126.65034,9.31473214 C127.143764,8.87946429 127.753288,8.66183036 128.478912,8.66183036 C129.668934,8.66183036 130.634014,9.01004464 131.37415,9.70647321 C132.114286,10.4029018 132.680272,11.2734375 133.072109,12.3180804 C133.463946,13.3627232 133.717914,14.421875 133.834014,15.4955357 L133.834014,15.4955357 L134.704762,15.4955357 C134.704762,13.5223214 134.719274,11.9335938 134.748299,10.7293527 C134.777324,9.52511161 134.820862,8.50223214 134.878912,7.66071429 L134.878912,7.66071429 L134.008163,7.66071429 C133.775964,9.02455357 133.151927,9.40178571 132.136054,8.79241071 C131.70068,8.56026786 130.996825,8.30636161 130.02449,8.03069196 C129.052154,7.75502232 127.927438,7.6171875 126.65034,7.6171875 C125.228118,7.6171875 123.892971,7.87109375 122.644898,8.37890625 C121.396825,8.88671875 120.388209,9.60491071 119.619048,10.5334821 C118.849887,11.4620536 118.465306,12.5792411 118.465306,13.8850446 C118.465306,15.0167411 118.712018,16.0396205 119.205442,16.953683 C119.698866,17.8677455 120.330159,18.7092634 121.09932,19.4782366 C121.868481,20.2472098 122.688435,21.0379464 123.559184,21.8504464 C124.720181,22.8950893 125.685261,23.8526786 126.454422,24.7232143 C127.223583,25.59375 127.608163,26.6674107 127.608163,27.9441964 C127.608163,28.7566964 127.354195,29.358817 126.846259,29.750558 C126.338322,30.1422991 125.750567,30.3381696 125.082993,30.3381696 C124.038095,30.3381696 123.116553,29.9972098 122.318367,29.3152902 C121.520181,28.6333705 120.86712,27.6975446 120.359184,26.5078125 C119.851247,25.3180804 119.510204,23.9542411 119.336054,22.4162946 L119.336054,22.4162946 L118.465306,22.4162946 C118.465306,24.6216518 118.450794,26.3917411 118.421769,27.7265625 C118.392744,29.0613839 118.349206,30.1930804 118.291156,31.1216518 L118.291156,31.1216518 L119.161905,31.1216518 C119.278005,30.7154018 119.437642,30.359933 119.640816,30.0552455 C119.843991,29.750558 120.090703,29.5982143 120.380952,29.5982143 C120.700227,29.5982143 121.026757,29.6635045 121.360544,29.7940848 C121.694331,29.9246652 122.093424,30.1060268 122.557823,30.3381696 C123.022222,30.6283482 123.631746,30.8822545 124.386395,31.0998884 C125.141043,31.3175223 126.026304,31.4263393 127.042177,31.4263393 Z M143.673469,39 C144.747392,39 145.596372,38.8984375 146.220408,38.6953125 C146.844444,38.4921875 147.345125,38.2455357 147.722449,37.9553571 C148.477098,37.375 149.115646,36.3303571 149.638095,34.8214286 L149.638095,34.8214286 L151.466667,29.5546875 L156.908844,13.3627232 C157.402268,11.9408482 157.902948,10.9324777 158.410884,10.3376116 C158.918821,9.74274554 159.448526,9.34375 160,9.140625 L160,9.140625 L160,8.2265625 C159.680726,8.28459821 159.172789,8.328125 158.47619,8.35714286 C157.779592,8.38616071 157.170068,8.40066964 156.647619,8.40066964 C156.12517,8.40066964 155.385034,8.38616071 154.427211,8.35714286 C153.469388,8.328125 152.685714,8.28459821 152.07619,8.2265625 L152.07619,8.2265625 L152.07619,9.140625 C153.353288,9.22767857 154.311111,9.98939732 154.94966,11.4257812 C155.588209,12.8621652 155.414059,15.0457589 154.427211,17.9765625 L154.427211,17.9765625 L152.611079,23.5386639 L147.243537,10.7946429 C147.040363,10.312221 147.003855,9.95754569 147.134014,9.73061698 L147.2,9.64118304 C147.403175,9.42354911 147.736961,9.28571429 148.201361,9.22767857 C148.66576,9.16964286 149.159184,9.140625 149.681633,9.140625 L149.681633,9.140625 L149.681633,8.2265625 C148.810884,8.28459821 147.882086,8.34263393 146.895238,8.40066964 C145.90839,8.45870536 144.73288,8.48772321 143.368707,8.48772321 C142.294785,8.48772321 141.133787,8.46595982 139.885714,8.42243304 C138.637642,8.37890625 137.433107,8.31361607 136.272109,8.2265625 L136.272109,8.2265625 L136.272109,9.140625 C136.591383,9.140625 136.968707,9.27120536 137.404082,9.53236607 C137.839456,9.79352679 138.303855,10.4754464 138.797279,11.578125 L138.797279,11.578125 L148.957046,34.0084104 L148.72381,34.734375 C148.38841,35.7919147 147.915411,36.6029817 147.304812,37.1675761 L147.069388,37.3677455 C146.343764,37.9335937 145.516553,38.2165179 144.587755,38.2165179 C144.413605,38.2165179 144.181406,38.2092634 143.891156,38.1947545 C143.600907,38.1802455 143.339683,38.1584821 143.107483,38.1294643 C144.094331,37.8102679 144.812698,37.3314732 145.262585,36.6930804 C145.712472,36.0546875 145.937415,35.4162946 145.937415,34.7779018 C145.937415,33.7042411 145.581859,32.8989955 144.870748,32.3621652 C144.159637,31.8253348 143.20907,31.5569196 142.019048,31.5569196 C140.74195,31.5569196 139.711565,31.8616071 138.927891,32.4709821 C138.144218,33.0803571 137.752381,33.8928571 137.752381,34.9084821 C137.752381,35.9241071 138.078912,36.7293527 138.731973,37.3242187 C139.385034,37.9190848 140.168707,38.3470982 141.082993,38.6082589 C141.997279,38.8694196 142.860771,39 143.673469,39 Z" id="Loversy" fill="#274035" fill-rule="nonzero"></path>
    </g>
</svg>